<svg width="393" height="489" viewBox="0 0 393 489" fill="none" xmlns="http://www.w3.org/2000/svg">
<path d="M392.1 422.7L364.1 107.4C363.5 100.4 357.6 95.1 350.7 95.1H293.1C292.3 42.5 249.3 0 196.5 0C143.7 0 100.7 42.5 99.9 95.1H42.3001C35.3001 95.1 29.5001 100.4 28.9001 107.4L0.900051 422.7C0.900051 423.1 0.800049 423.5 0.800049 423.9C0.800049 459.8 33.7 489 74.2 489H318.8C359.3 489 392.2 459.8 392.2 423.9C392.2 423.5 392.2 423.1 392.1 422.7ZM196.5 27C234.4 27 265.3 57.4 266.1 95.1H126.9C127.7 57.4 158.6 27 196.5 27ZM318.8 462H74.2C48.8 462 28.2001 445.2 27.8001 424.5L54.6 122.2H99.8V163.2C99.8 170.7 105.8 176.7 113.3 176.7C120.8 176.7 126.8 170.7 126.8 163.2V122.2H266.1V163.2C266.1 170.7 272.1 176.7 279.6 176.7C287.1 176.7 293.1 170.7 293.1 163.2V122.2H338.3L365.2 424.5C364.8 445.2 344.1 462 318.8 462Z" fill="black"/>
</svg>
