<svg width="463" height="463" viewBox="0 0 463 463" fill="none" xmlns="http://www.w3.org/2000/svg">
<circle cx="231.5" cy="231.5" r="231.5" fill="white"/>
<path d="M176.764 378C127.502 377.716 86.7525 277.154 86.7525 225.94C86.7525 142.283 149.51 123.968 173.696 123.968C184.596 123.968 196.235 128.248 206.5 132.036C213.679 134.678 221.103 137.406 225.232 137.406C227.704 137.406 233.528 135.085 238.67 133.05C249.636 128.684 263.282 123.258 279.173 123.258C279.201 123.258 279.239 123.258 279.267 123.258C291.133 123.258 327.11 125.862 348.739 158.344L353.806 165.958L346.514 171.46C336.097 179.32 317.09 193.658 317.09 222.058C317.09 255.696 338.616 268.632 348.957 274.853C353.522 277.6 358.247 280.431 358.247 286.625C358.247 290.668 325.973 377.498 279.106 377.498C267.638 377.498 259.532 374.051 252.382 371.012C245.147 367.934 238.906 365.282 228.593 365.282C223.366 365.282 216.755 367.754 209.757 370.377C200.194 373.947 189.369 378 177.086 378H176.764Z" fill="black"/>
<path d="M284.138 47C285.358 91.0101 253.884 121.542 222.447 119.627C217.267 84.5058 253.88 47 284.138 47Z" fill="black"/>
</svg>
